<svg width="512" height="512" viewBox="0 0 512 512" xmlns="http://www.w3.org/2000/svg" role="img" aria-labelledby="title desc">
  <title id="title">Intern Skill Logo</title>
  <desc id="desc">A fantasy-style AI intern with a glowing project map and stars.</desc>
  <defs>
    <radialGradient id="bg" cx="50%" cy="38%" r="70%">
      <stop offset="0%" stop-color="#FFF7D6"/>
      <stop offset="42%" stop-color="#E9DDFF"/>
      <stop offset="100%" stop-color="#DDF4FF"/>
    </radialGradient>
    <linearGradient id="robe" x1="160" y1="252" x2="352" y2="438" gradientUnits="userSpaceOnUse">
      <stop offset="0%" stop-color="#8B5CF6"/>
      <stop offset="52%" stop-color="#4F46E5"/>
      <stop offset="100%" stop-color="#0EA5E9"/>
    </linearGradient>
    <linearGradient id="map" x1="144" y1="326" x2="380" y2="438" gradientUnits="userSpaceOnUse">
      <stop offset="0%" stop-color="#FFFBEB"/>
      <stop offset="100%" stop-color="#ECFEFF"/>
    </linearGradient>
    <filter id="softShadow" x="-20%" y="-20%" width="140%" height="150%">
      <feDropShadow dx="0" dy="16" stdDeviation="18" flood-color="#4C1D95" flood-opacity="0.22"/>
    </filter>
    <filter id="glow" x="-40%" y="-40%" width="180%" height="180%">
      <feGaussianBlur stdDeviation="6" result="blur"/>
      <feMerge>
        <feMergeNode in="blur"/>
        <feMergeNode in="SourceGraphic"/>
      </feMerge>
    </filter>
  </defs>
  <rect width="512" height="512" rx="118" fill="url(#bg)"/>
  <circle cx="256" cy="260" r="188" fill="#FFFFFF" opacity="0.32"/>
  <path d="M99 170c35-70 101-107 181-99 71 7 125 51 151 113" fill="none" stroke="#FFFFFF" stroke-width="20" stroke-linecap="round" opacity="0.55"/>
  <g filter="url(#glow)" fill="#FBBF24">
    <path d="M92 100l9 22 23 9-23 9-9 23-9-23-23-9 23-9 9-22Z"/>
    <path d="M418 92l7 17 18 7-18 7-7 18-7-18-18-7 18-7 7-17Z"/>
    <path d="M408 310l6 14 14 6-14 6-6 14-6-14-14-6 14-6 6-14Z"/>
  </g>
  <g filter="url(#softShadow)">
    <path d="M130 374c17-79 72-129 136-129 67 0 117 50 131 129 6 34-20 64-55 64H184c-35 0-61-30-54-64Z" fill="url(#robe)"/>
    <path d="M179 257c-8-55 25-112 91-120 70-8 115 40 109 111-5 58-48 103-103 103-52 0-89-39-97-94Z" fill="#FFDDBF"/>
    <path d="M173 235c4-59 42-101 100-104 51-3 96 31 106 82-19-3-40-12-56-30-24 24-82 42-150 52Z" fill="#3B2F5C"/>
    <path d="M192 236c14-55 54-85 111-86" fill="none" stroke="#7C3AED" stroke-width="14" stroke-linecap="round" opacity="0.45"/>
    <circle cx="229" cy="266" r="8" fill="#312E81"/>
    <circle cx="318" cy="266" r="8" fill="#312E81"/>
    <path d="M252 305c15 13 33 13 48 0" fill="none" stroke="#A16207" stroke-width="9" stroke-linecap="round"/>
    <path d="M135 347l242-28 21 108-242 28z" fill="url(#map)" stroke="#7C3AED" stroke-width="9" stroke-linejoin="round"/>
    <path d="M177 379l62-7M181 410l94-11M302 362l47-5" stroke="#2563EB" stroke-width="11" stroke-linecap="round"/>
    <path d="M310 401c18-31 44-44 76-39" fill="none" stroke="#10B981" stroke-width="10" stroke-linecap="round"/>
    <circle cx="386" cy="362" r="8" fill="#10B981"/>
    <circle cx="309" cy="402" r="8" fill="#10B981"/>
  </g>
  <path d="M133 159h87c18 0 32 14 32 32v36h-94c-31 0-56-25-56-56v-12h31Z" fill="#FFFFFF" opacity="0.85" stroke="#A78BFA" stroke-width="8"/>
  <path d="M137 189h76" stroke="#7C3AED" stroke-width="11" stroke-linecap="round"/>
  <path d="M367 190h-71c-17 0-31 14-31 31v32h89c29 0 52-23 52-52v-11h-39Z" fill="#FFFFFF" opacity="0.85" stroke="#38BDF8" stroke-width="8"/>
  <path d="M302 221h59" stroke="#0284C7" stroke-width="11" stroke-linecap="round"/>
</svg>
