<svg width="512" height="512" viewBox="0 0 512 512" xmlns="http://www.w3.org/2000/svg" role="img" aria-labelledby="title desc">
  <title id="title">intern-skill logo</title>
  <desc id="desc">A clean app-style badge with a small fox intern, compass, and project nodes.</desc>
  <defs>
    <linearGradient id="bg" x1="64" y1="64" x2="448" y2="448" gradientUnits="userSpaceOnUse">
      <stop offset="0%" stop-color="#E7FFF6"/>
      <stop offset="48%" stop-color="#F8FAFC"/>
      <stop offset="100%" stop-color="#FFE8D6"/>
    </linearGradient>
    <linearGradient id="fox" x1="154" y1="136" x2="360" y2="376" gradientUnits="userSpaceOnUse">
      <stop offset="0%" stop-color="#FFB15A"/>
      <stop offset="56%" stop-color="#F97316"/>
      <stop offset="100%" stop-color="#C2410C"/>
    </linearGradient>
    <linearGradient id="card" x1="130" y1="312" x2="382" y2="426" gradientUnits="userSpaceOnUse">
      <stop offset="0%" stop-color="#FFFFFF"/>
      <stop offset="100%" stop-color="#ECFEFF"/>
    </linearGradient>
    <filter id="shadow" x="-20%" y="-20%" width="140%" height="150%">
      <feDropShadow dx="0" dy="16" stdDeviation="18" flood-color="#0F172A" flood-opacity="0.18"/>
    </filter>
  </defs>

  <rect x="40" y="40" width="432" height="432" rx="92" fill="url(#bg)"/>
  <path d="M112 164c42-47 92-70 150-69 61 1 109 27 145 78" fill="none" stroke="#0F766E" stroke-width="18" stroke-linecap="round" opacity="0.16"/>
  <path d="M112 384c41 28 90 42 147 42 55 0 102-14 141-41" fill="none" stroke="#EA580C" stroke-width="18" stroke-linecap="round" opacity="0.13"/>

  <g filter="url(#shadow)">
    <path d="M147 171l54-62 28 82-82-20Z" fill="#F97316" stroke="#9A3412" stroke-width="10" stroke-linejoin="round"/>
    <path d="M365 171l-54-62-28 82 82-20Z" fill="#F97316" stroke="#9A3412" stroke-width="10" stroke-linejoin="round"/>
    <path d="M142 244c0-77 51-129 114-129s114 52 114 129c0 72-47 122-114 122s-114-50-114-122Z" fill="url(#fox)" stroke="#9A3412" stroke-width="10"/>
    <path d="M180 246c16 66 52 101 76 101s60-35 76-101c-25 16-51 24-76 24s-51-8-76-24Z" fill="#FFF7ED"/>
    <path d="M205 223c17 12 33 12 49 0" fill="none" stroke="#7C2D12" stroke-width="9" stroke-linecap="round"/>
    <path d="M258 223c17 12 33 12 49 0" fill="none" stroke="#7C2D12" stroke-width="9" stroke-linecap="round"/>
    <path d="M256 257l-19 20h38l-19-20Z" fill="#0F172A"/>
    <path d="M235 302c16 13 26 13 42 0" fill="none" stroke="#7C2D12" stroke-width="8" stroke-linecap="round"/>

    <path d="M126 335l250-34 19 101-250 34z" fill="url(#card)" stroke="#0F766E" stroke-width="9" stroke-linejoin="round"/>
    <path d="M170 365l62-8M176 396l92-12M303 348l48-7" stroke="#0891B2" stroke-width="10" stroke-linecap="round"/>
    <circle cx="304" cy="392" r="9" fill="#10B981"/>
    <circle cx="354" cy="364" r="9" fill="#10B981"/>
    <path d="M304 392c13-23 30-33 50-28" fill="none" stroke="#10B981" stroke-width="9" stroke-linecap="round"/>
  </g>

  <g>
    <circle cx="384" cy="142" r="42" fill="#FFFFFF" stroke="#0F766E" stroke-width="9"/>
    <path d="M384 116l13 34-34-13 21-21Z" fill="#F97316"/>
    <path d="M384 168l-13-34 34 13-21 21Z" fill="#0F766E"/>
    <circle cx="384" cy="142" r="5" fill="#0F172A"/>
  </g>

  <g fill="#0F766E">
    <circle cx="122" cy="135" r="8"/>
    <circle cx="120" cy="202" r="8"/>
    <circle cx="100" cy="172" r="6"/>
    <path d="M122 135l-22 37 20 30" fill="none" stroke="#0F766E" stroke-width="6" stroke-linecap="round" stroke-linejoin="round"/>
  </g>
</svg>
